<svg xmlns="http://www.w3.org/2000/svg" xmlns:xlink="http://www.w3.org/1999/xlink" width="143" height="19" viewBox="0 0 143 19">
    <defs>
        <path id="a" d="M0 0h143v19H0z"/>
    </defs>
    <g fill="none" fill-rule="evenodd">
        <mask id="b" fill="#fff">
            <use xlink:href="#a"/>
        </mask>
        <path fill="#FFF" d="M36.126 2.831H21.72c-.842 0-1.677.257-2.554.785l-.184.11.48.45c1.512 1.566 1.778 2.613 1.778 4.23 0 1.656-.427 2.834-1.427 3.938l-.167.185.232.08c.689.234 1.703.236 1.713.236h3.705c1.475 0 2.813-1.126 3.184-2.68l.047-.2h-5.172c-.034 0-.021-.035-.021-.035l.468-1.215a.089.089 0 0 1 .086-.054l5.325-.001c1.493 0 2.686-.787 3.04-2.006l.061-.208h-6.082c-.06 0-.027-.07-.027-.07l.454-1.171a.125.125 0 0 1 .086-.055h6.255c1.404 0 2.588-1.276 3.004-2.081l.123-.238zM18.531 11.94c.924-.939 1.357-2.177 1.357-3.489 0-1.36-.534-2.662-1.428-3.482l-2.568-2.641c-1.031-.946-2.385-1.191-3.598-.494l-.183.105 4.061 4.12.369.37c.007.008.012.017.011.024 0 .006-.004.013-.011.018-.027.02-.662.627-.99.859-.05.025-.067.006-.093-.019l-4.812-4.868c-.943-.956-2.287-1.245-3.46-.604l-.188.103.029.03 4.286 4.34c.01.01.018.028.017.048 0 .016-.008.03-.022.042-.05.04-.871.898-.904.925-.018.013-.041.02-.08-.019L5.53 2.443c-.947-.96-2.295-1.169-3.468-.52l-.188.104 9.776 9.912c.927.94 2.086 1.459 3.402 1.459 1.311 0 2.467-.436 3.394-1.37l.085-.089zM37.986 1.43v.277c0 2.11-2.132 4.237-3.923 4.534l-.11.018-.02.115c-.295 1.877-1.92 3.474-3.863 3.797l-.112.02-.017.115c-.344 2.34-2.325 4.104-4.608 4.104l-3.628-.003c-1.175-.001-2.309-.05-3.265-.626l-.08-.048-.078.049a6.099 6.099 0 0 1-3.23.925 6.078 6.078 0 0 1-4.357-1.823L0 2.043l.407-.514c1.447-1.468 3.8-1.653 5.476-.43l.09.066.09-.065C7.501.05 9.526.055 10.987 1.116l.09.065.09-.067c1.746-1.298 4.24-1.085 5.8.494l1.028 1.159.111-.08c1.144-.822 2.39-1.257 3.604-1.257h16.275zM142.8 12.903c-.28.061-.48.082-.621.082-.563 0-.743-.165-.743-.916V0l-2.047.312v12.113c0 1.559.622 2.289 2.028 2.289.56 0 1.162-.127 1.583-.313l-.2-1.498zm-7.53-4.141c0-2.228-.541-2.872-1.925-2.872-1.383 0-1.926.644-1.926 2.872h3.852zm2.027.749v.957h-5.878c0 1.873.543 2.602 2.168 2.602a16.63 16.63 0 0 0 2.967-.25l.222 1.601c-1.063.25-2.227.396-3.189.396-2.969 0-4.313-1.207-4.313-5.306 0-3.933 1.263-5.306 4.012-5.306 2.748 0 4.011 1.373 4.011 5.306zm-12.403-1.874c0-1.54-.521-1.853-1.985-1.853-1.466 0-1.988.313-1.988 1.853s.522 1.853 1.988 1.853c1.464 0 1.985-.313 1.985-1.853zm-3.69 6.453c-.402.54-.563 1.039-.563 1.851 0 1.062.703 1.416 2.587 1.416 1.887 0 2.59-.354 2.59-1.416 0-1.186-.522-1.374-1.566-1.456l-1.765-.168c-.522-.04-1.063-.145-1.283-.227zm6.96-8.221h-1.705c.26.436.381 1.123.381 1.768 0 2.831-1.526 3.434-3.931 3.434-.483 0-1.063-.063-1.325-.126l-.1.667c-.12.688.12.854 1.223.957l2.046.21c2.108.206 3.009 1.144 3.009 3.162 0 2.268-1.385 3.059-4.534 3.059s-4.532-.79-4.532-3.059c0-.915.44-1.728 1.022-2.207l.443-.353c-.382-.354-.583-.936-.262-1.81l.381-1.061c-.702-.439-1.303-1.145-1.303-2.873 0-2.83 1.524-3.432 3.932-3.432.882 0 1.743.061 2.506.497l2.508-.396.241 1.563zm-14.289-1.664c-1.244 0-2.206.455-3.09 1.122l-.24-.936h-1.605v10.24h2.046V6.825c.722-.416 1.586-.686 2.406-.686 1.164 0 1.485.415 1.485 1.623v6.867h2.048V7.262c0-1.414-.603-3.057-3.05-3.057zM100.59 8.782h5.699V6.784h-5.7V2.976h6.18V.977h-8.305V14.63h8.425v-1.999h-6.3V8.782zm-7.656-4.391h-1.606v10.24h2.046V6.908c.762-.375 1.604-.582 2.769-.582V4.205c-1.225 0-2.348.583-2.95 1.205l-.26-1.019zm-5.725 4.37c0-2.227-.54-2.871-1.925-2.871s-1.925.644-1.925 2.872h3.85zm2.026.75v.957h-5.876c0 1.873.54 2.602 2.164 2.602 1.044 0 1.827-.063 2.97-.25l.221 1.601c-1.063.25-2.227.396-3.191.396-2.968 0-4.311-1.207-4.311-5.306 0-3.933 1.263-5.306 4.011-5.306s4.012 1.373 4.012 5.306zm-9.513-3.33l.24-1.79h-3.069V1.414l-2.046.313v2.664H73.34v1.79h1.505v5.868c0 1.956.962 2.665 2.648 2.665.781 0 1.503-.084 2.266-.355l-.182-1.499c-.56.104-.981.167-1.483.167-.983 0-1.203-.396-1.203-1.374V6.181h2.829zm-9.616 2.58c0-2.227-.542-2.871-1.926-2.871s-1.926.644-1.926 2.872h3.852zm2.026.75v.957h-5.878c0 1.873.542 2.602 2.166 2.602 1.044 0 1.825-.063 2.97-.25l.22 1.601c-1.063.25-2.226.396-3.19.396-2.968 0-4.313-1.207-4.313-5.306 0-3.933 1.263-5.306 4.013-5.306 2.748 0 4.012 1.373 4.012 5.306zm-12.243 5.12h2.046V4.39h-2.046v10.24zM60.912.227c-1.064 0-1.104.043-1.104 1.145 0 1.104.04 1.144 1.104 1.144 1.062 0 1.103-.04 1.103-1.144 0-1.102-.04-1.145-1.103-1.145zm-6.527.75h2.728V14.63h-2.126V7.137c0-1.685.1-3.059.1-3.059h-.08s-.382 1.166-.984 2.519l-2.045 4.64h-1.887l-2.045-4.64c-.602-1.353-.984-2.519-.984-2.519h-.08s.102 1.374.102 3.059v7.493h-2.128V.977h2.729l3.33 7.972h.04l3.33-7.972z" mask="url(#b)"/>
    </g>
</svg>
